{"title":"Home Sweet Home 2013 HDRIP Xvid AC3-BHRG","uid":8499000,"size":1285470994,"categoryP":"video","categoryS":"movies","magnet":"?xt=urn:btih:09f1fc05e65b0ec1816adfb6bbbee3222ba994c4&amp;dn=Home+Sweet+Home+2013+HDRIP+Xvid+AC3-BHRG&amp;tr=udp%3A%2F%2Ftracker.openbittorrent.com%3A80&amp;tr=udp%3A%2F%2Fopen.demonii.com%3A1337&amp;tr=udp%3A%2F%2Ftracker.coppersurfer.tk%3A6969&amp;tr=udp%3A%2F%2Fexodus.desync.com%3A6969","seeders":1,"leechers":0,"uploader":"R0thschild","files":3,"time":1369237803,"description":"              ***********************************************\n\n                PublicHash - Largest Bittorrent Community\n      \n                         &lt;a href=&quot; http://publichash.com/&quot; rel=&quot;nofollow&quot; target=&quot;_NEW&quot;&gt; http://publichash.com/&lt;/a&gt;\n    \n              ***********************************************\n\nFormat                                   : MPEG-4\n\nFile size                                : 1.20 GiB\nDuration                                 : 1h 21mn\nOverall bit rate                         : 2 101 Kbps\n\nVideo\nID                                       : 1\nFormat                                   : AVC\nFormat/Info                              : Advanced Video Codec\nFormat profile                           : &lt;a class=&quot;__cf_email__&quot; href=&quot;/cdn-cgi/l/email-protection&quot; data-cfemail=&quot;064e6f616e464a322834&quot;&gt;[email&amp;#160;protected]&lt;/a&gt;&lt;script cf-hash='f9e31' type=&quot;text/javascript&quot;&gt;\n/* &lt;![CDATA[ */!function(){try{var t=&quot;currentScript&quot;in document?document.currentScript:function(){for(var t=document.getElementsByTagName(&quot;script&quot;),e=t.length;e--;)if(t[e].getAttribute(&quot;cf-hash&quot;))return t[e]}();if(t&amp;&amp;t.previousSibling){var e,r,n,i,c=t.previousSibling,a=c.getAttribute(&quot;data-cfemail&quot;);if(a){for(e=&quot;&quot;,r=parseInt(a.substr(0,2),16),n=2;a.length-n;n+=2)i=parseInt(a.substr(n,2),16)^r,e+=String.fromCharCode(i);e=document.createTextNode(e),c.parentNode.replaceChild(e,c)}}}catch(u){}}();/* ]]&gt; */&lt;/script&gt;\nFormat settings, CABAC                   : Yes\nFormat settings, ReFrames                : 4 frames\nCodec ID                                 : avc1\nCodec ID/Info                            : Advanced Video Coding\nDuration                                 : 1h 21mn\nBit rate                                 : 1 651 Kbps\nMaximum bit rate                         : 4 793 Kbps\nWidth                                    : 720 pixels\nHeight                                   : 304 pixels\nDisplay aspect ratio                     : 2.35:1\nFrame rate mode                          : Constant\nFrame rate                               : 23.976 fps\nColor space                              : YUV\nChroma subsampling                       : 4:2:0\nBit depth                                : 8 bits\nScan type                                : Progressive\nBits/(Pixel*Frame)                       : 0.315\nStream size                              : 963 MiB (79%)\n\n\nAudio\nID                                       : 2\nFormat                                   : AC-3\nFormat/Info                              : Audio Coding 3\nMode extension                           : CM (complete main)\nFormat settings, Endianness              : Big\nCodec ID                                 : ac-3\nDuration                                 : 1h 21mn\nBit rate mode                            : Constant\nBit rate                                 : 448 Kbps\nChannel(s)                               : 6 channels\nChannel positions                        : Front: L C R, Side: L R, LFE\nSampling rate                            : 48.0 KHz\nBit depth                                : 16 bits\nCompression mode                         : Lossy\nStream size                              : 261 MiB (21%)\nLanguage                                 : English\n\n\nIMDBhttp://www.imdb.com/title/tt2069798/\n\nsource &gt;&gt;&gt;&gt;&gt;&gt;720p Web-DL Webios thanks had nice tones so didn't mess to much with.\nenglish srt included\n &lt;a href=&quot;\nhttp://imgsure.com/?p=285350&quot; rel=&quot;nofollow&quot; target=&quot;_NEW&quot;&gt;\nhttp://imgsure.com/?p=285350&lt;/a&gt; &lt;a href=&quot;\nhttp://imgsure.com/?p=983891&quot; rel=&quot;nofollow&quot; target=&quot;_NEW&quot;&gt;\nhttp://imgsure.com/?p=983891&lt;/a&gt; &lt;a href=&quot;\nhttp://imgsure.com/?p=595381&quot; rel=&quot;nofollow&quot; target=&quot;_NEW&quot;&gt;\nhttp://imgsure.com/?p=595381&lt;/a&gt;","torrent":{"xt":"urn:btih:09f1fc05e65b0ec1816adfb6bbbee3222ba994c4","amp;dn":"Home+Sweet+Home+2013+HDRIP+Xvid+AC3-BHRG","amp;tr":["udp%3A%2F%2Ftracker.openbittorrent.com%3A80","udp%3A%2F%2Fopen.demonii.com%3A1337","udp%3A%2F%2Ftracker.coppersurfer.tk%3A6969","udp%3A%2F%2Fexodus.desync.com%3A6969"],"infoHash":"09f1fc05e65b0ec1816adfb6bbbee3222ba994c4","infoHashBuffer":{"type":"Buffer","data":[9,241,252,5,230,91,14,193,129,106,223,182,187,190,227,34,43,169,148,196]},"announce":[],"urlList":[]}}